<?xml version="1.0" encoding="utf-8"?>
<svg viewBox="201.872 190.515 233.236 81.431" xmlns="http://www.w3.org/2000/svg">
  <rect x="213.394" y="208.403" width="210.483" height="60.732" style="stroke-width: 2px; fill: rgba(255, 255, 255, 0); stroke: rgb(255, 255, 255);"/>
  <rect style="stroke: rgba(0, 0, 0, 0); fill: rgb(255, 255, 255);" x="238.976" y="241.265" width="164.725" height="27.87"/>
  <rect x="226.081" y="200.916" width="185.108" height="50.332" style="fill: rgba(216, 216, 216, 0); stroke-width: 2px; stroke: rgb(255, 255, 255);"/>
  <path d="M 234.59 226.159 L 231.586 227.388 L 234.59 228.711 L 234.59 229.383 L 230.739 227.643 L 230.739 227.11 L 230.739 227.11 L 230.739 227.11 L 234.59 225.497 Z" transform="matrix(1.698561, 0, 0, 2.02036, -158.170471, -232.776199)" style="fill: rgb(255, 255, 255); white-space: pre;"/>
  <path d="M 239.918 224.163 L 241.275 223.363 L 243.676 223.363 L 243.676 224.674 L 241.426 224.674 L 241.426 228.676 L 243.63 228.676 L 243.63 230.033 L 241.275 230.033 L 239.918 229.244 Z M 246.449 227.875 L 246.449 228.676 L 244.245 228.676 L 244.245 230.033 L 246.599 230.033 L 247.957 229.244 L 247.957 227.875 Z M 247.957 225.486 L 247.957 224.163 L 246.599 223.363 L 244.198 223.363 L 244.198 224.674 L 246.449 224.674 L 246.449 225.486 Z" transform="matrix(1.698561, 0, 0, 2.02036, -158.170471, -232.776199)" style="fill: rgb(255, 255, 255); white-space: pre;"/>
  <path d="M 250.047 223.363 L 251.473 223.363 L 251.473 224.929 L 253.237 224.929 L 253.237 226.043 L 251.473 226.043 L 251.473 230.045 L 250.047 230.045 Z M 256.949 225.729 L 255.638 224.929 L 253.747 224.929 L 253.747 226.043 L 255.487 226.043 L 255.487 230.045 L 256.949 230.045 Z" transform="matrix(1.698561, 0, 0, 2.02036, -158.170471, -232.776199)" style="fill: rgb(255, 255, 255); white-space: pre;"/>
  <path d="M 258.916 227.771 L 260.238 226.971 L 262.141 226.971 L 262.141 227.864 L 260.389 227.864 L 260.389 228.815 L 262.141 228.815 L 262.141 230.045 L 260.238 230.045 L 258.916 229.244 Z M 258.916 226.541 L 258.916 225.741 L 260.238 224.929 L 262.141 224.929 L 262.141 226.019 L 260.389 226.019 L 260.389 226.541 Z M 265.876 225.741 L 264.553 224.929 L 262.651 224.929 L 262.651 226.019 L 264.403 226.019 L 264.403 226.971 L 262.651 226.971 L 262.651 227.864 L 264.403 227.864 L 264.403 228.815 L 262.697 228.815 L 262.697 230.045 L 265.876 230.045 Z" transform="matrix(1.698561, 0, 0, 2.02036, -158.170471, -232.776199)" style="fill: rgb(255, 255, 255); white-space: pre;"/>
  <path d="M 268.073 224.964 L 269.523 224.964 L 269.523 225.463 L 271.263 224.964 L 271.263 226.043 L 269.523 226.043 L 269.523 230.033 L 268.073 230.033 Z M 273.293 225.602 L 271.785 224.964 L 271.785 226.541 L 273.293 226.541 Z" transform="matrix(1.698561, 0, 0, 2.02036, -158.170471, -232.776199)" style="fill: rgb(255, 255, 255); white-space: pre;"/>
  <path d="M 274.495 223.363 L 275.98 223.363 L 275.98 230.045 L 274.495 230.045 Z" transform="matrix(1.698561, 0, 0, 2.02036, -158.170471, -232.776199)" style="fill: rgb(255, 255, 255); white-space: pre;"/>
  <path d="M 285.004 227.052 L 283.635 227.852 L 281.779 227.852 L 281.779 226.959 L 283.531 226.959 L 283.531 226.008 L 281.779 226.008 L 281.779 224.917 L 283.635 224.917 L 285.004 225.729 Z M 285.004 228.421 L 285.004 229.233 L 283.635 230.033 L 281.779 230.033 L 281.779 228.803 L 283.484 228.803 L 283.484 228.421 Z M 277.997 229.233 L 279.366 230.033 L 281.211 230.033 L 281.211 228.803 L 279.459 228.803 L 279.459 227.852 L 281.211 227.852 L 281.211 226.959 L 279.459 226.959 L 279.459 226.008 L 281.211 226.008 L 281.211 224.917 L 279.366 224.917 L 277.997 225.729 Z" transform="matrix(1.698561, 0, 0, 2.02036, -158.170471, -232.776199)" style="fill: rgb(255, 255, 255); white-space: pre;"/>
  <path d="M 293.77 229.233 L 292.447 230.033 L 290.58 230.033 L 290.58 228.815 L 292.366 228.815 L 292.366 227.875 L 290.614 227.875 L 290.614 226.971 L 292.447 226.971 L 293.77 227.783 Z M 286.856 225.764 L 288.178 224.964 L 290.058 224.964 L 290.058 226.043 L 288.318 226.043 L 288.318 226.971 L 290.058 226.971 L 290.058 227.875 L 288.178 227.875 L 286.856 227.075 Z M 288.318 228.421 L 288.318 228.815 L 290.058 228.815 L 290.058 230.033 L 288.178 230.033 L 286.856 229.233 L 286.856 228.421 Z M 292.32 226.541 L 292.32 226.043 L 290.58 226.043 L 290.58 224.964 L 292.447 224.964 L 293.77 225.764 L 293.77 226.541 Z" transform="matrix(1.698561, 0, 0, 2.02036, -158.170471, -232.776199)" style="fill: rgb(255, 255, 255); white-space: pre;"/>
  <path d="M 295.622 224.163 L 296.979 223.363 L 299.381 223.363 L 299.381 224.674 L 297.13 224.674 L 297.13 228.676 L 299.334 228.676 L 299.334 230.033 L 296.979 230.033 L 295.622 229.244 Z M 302.153 227.875 L 302.153 228.676 L 299.949 228.676 L 299.949 230.033 L 302.304 230.033 L 303.661 229.244 L 303.661 227.875 Z M 303.661 225.486 L 303.661 224.163 L 302.304 223.363 L 299.903 223.363 L 299.903 224.674 L 302.153 224.674 L 302.153 225.486 Z" transform="matrix(1.698561, 0, 0, 2.02036, -158.170471, -232.776199)" style="fill: rgb(255, 255, 255); white-space: pre;"/>
  <path d="M 305.519 225.729 L 306.876 224.929 L 308.709 224.929 L 308.709 226.019 L 306.969 226.019 L 306.969 228.78 L 308.709 228.78 L 308.709 230.021 L 306.876 230.021 L 305.519 229.221 Z M 312.328 225.729 L 310.971 224.929 L 309.127 224.929 L 309.127 226.019 L 310.878 226.019 L 310.878 228.78 L 309.127 228.78 L 309.127 230.021 L 310.971 230.021 L 312.328 229.221 Z" transform="matrix(1.698561, 0, 0, 2.02036, -158.170471, -232.776199)" style="fill: rgb(255, 255, 255); white-space: pre;"/>
  <path d="M 314.408 224.929 L 315.882 224.929 L 315.882 225.428 L 317.598 224.929 L 317.598 226.019 L 315.882 226.019 L 315.882 230.021 L 314.408 230.021 Z M 321.357 225.729 L 319.988 224.929 L 318.155 224.929 L 318.155 226.019 L 319.907 226.019 L 319.907 230.021 L 321.357 230.021 Z" transform="matrix(1.698561, 0, 0, 2.02036, -158.170471, -232.776199)" style="fill: rgb(255, 255, 255); white-space: pre;"/>
  <path d="M 330.662 227.643 L 326.811 229.383 L 326.811 228.711 L 329.815 227.388 L 326.811 226.159 L 326.811 225.497 L 330.662 227.11 Z" transform="matrix(1.698561, 0, 0, 2.02036, -158.170471, -232.776199)" style="fill: rgb(255, 255, 255); white-space: pre;"/>
  <path d="M 263.575 252.482 L 267.287 252.482 L 267.287 253.793 L 265.037 253.793 L 265.037 257.795 L 267.287 257.795 L 267.287 259.152 L 263.575 259.152 Z M 271.567 253.282 L 270.257 252.482 L 267.855 252.482 L 267.855 253.793 L 270.106 253.793 L 270.106 257.795 L 267.855 257.795 L 267.855 259.152 L 270.257 259.152 L 271.567 258.363 Z" transform="matrix(1.577123, 0, 0, 1.477503, -162.298431, -121.884384)" style="fill: rgb(65, 74, 86); white-space: pre;"/>
  <path d="M 273.648 252.482 L 277.36 252.482 L 277.36 253.851 L 275.11 253.851 L 275.11 255.162 L 277.36 255.162 L 277.36 256.484 L 275.11 256.484 L 275.11 257.841 L 277.314 257.841 L 277.314 259.152 L 273.648 259.152 L 273.648 252.482 Z M 277.928 257.841 L 277.928 259.152 L 281.64 259.152 L 281.64 257.841 L 277.928 257.841 Z M 281.64 253.851 L 281.64 252.482 L 277.882 252.482 L 277.882 253.851 L 281.64 253.851 Z M 279.761 256.484 L 279.761 255.162 L 277.882 255.162 L 277.882 256.484 L 279.761 256.484 Z" transform="matrix(1.577123, 0, 0, 1.477503, -162.298431, -121.884384)" style="fill: rgb(65, 74, 86); white-space: pre;"/>
  <path d="M 283.427 252.482 L 285.816 256.484 L 285.816 259.152 L 282.104 252.911 L 283.427 252.482 Z M 288.786 252.482 L 286.385 256.484 L 286.385 259.152 L 290.097 252.911 L 288.786 252.482 Z" transform="matrix(1.577123, 0, 0, 1.477503, -162.298431, -121.884384)" style="fill: rgb(65, 74, 86); white-space: pre;"/>
  <path d="M 291.37 252.482 L 295.082 252.482 L 295.082 253.851 L 292.832 253.851 L 292.832 255.162 L 295.082 255.162 L 295.082 256.484 L 292.832 256.484 L 292.832 257.841 L 295.036 257.841 L 295.036 259.152 L 291.37 259.152 L 291.37 252.482 Z M 295.651 257.841 L 295.651 259.152 L 299.363 259.152 L 299.363 257.841 L 295.651 257.841 Z M 299.363 253.851 L 299.363 252.482 L 295.604 252.482 L 295.604 253.851 L 299.363 253.851 Z M 297.483 256.484 L 297.483 255.162 L 295.604 255.162 L 295.604 256.484 L 297.483 256.484 Z" transform="matrix(1.577123, 0, 0, 1.477503, -162.298431, -121.884384)" style="fill: rgb(65, 74, 86); white-space: pre;"/>
  <path d="M 300.87 252.482 L 302.332 252.482 L 302.332 257.795 L 304.536 257.795 L 304.536 259.152 L 300.87 259.152 L 300.87 252.482 Z M 305.151 257.795 L 305.151 259.152 L 308.863 259.152 L 308.863 257.795 L 305.151 257.795 Z" transform="matrix(1.577123, 0, 0, 1.477503, -162.298431, -121.884384)" style="fill: rgb(65, 74, 86); white-space: pre;"/>
  <path d="M 309.903 253.282 L 311.261 252.482 L 313.662 252.482 L 313.662 253.793 L 311.365 253.793 L 311.365 257.795 L 313.615 257.795 L 313.615 259.152 L 311.261 259.152 L 309.903 258.363 L 309.903 253.282 Z M 317.896 253.282 L 316.585 252.482 L 314.184 252.482 L 314.184 253.793 L 316.434 253.793 L 316.434 257.795 L 314.184 257.795 L 314.184 259.152 L 316.585 259.152 L 317.896 258.363 L 317.896 253.282 Z" transform="matrix(1.577123, 0, 0, 1.477503, -162.298431, -121.884384)" style="fill: rgb(65, 74, 86); white-space: pre;"/>
  <path d="M 319.983 252.482 L 323.742 252.482 L 323.742 253.793 L 321.491 253.793 L 321.491 255.162 L 323.742 255.162 L 323.742 256.519 L 321.491 256.519 L 321.491 259.152 L 319.983 259.152 L 319.983 252.482 Z M 328.022 255.73 L 328.022 253.282 L 326.665 252.482 L 324.264 252.482 L 324.264 253.793 L 326.514 253.793 L 326.514 255.162 L 324.264 255.162 L 324.264 256.519 L 326.665 256.519 L 328.022 255.73 Z" transform="matrix(1.577123, 0, 0, 1.477503, -162.298431, -121.884384)" style="fill: rgb(65, 74, 86); white-space: pre;"/>
  <path d="M 329.341 252.482 L 333.053 252.482 L 333.053 253.851 L 330.802 253.851 L 330.802 255.162 L 333.053 255.162 L 333.053 256.484 L 330.802 256.484 L 330.802 257.841 L 333.006 257.841 L 333.006 259.152 L 329.341 259.152 L 329.341 252.482 Z M 333.621 257.841 L 333.621 259.152 L 337.333 259.152 L 337.333 257.841 L 333.621 257.841 Z M 337.333 253.851 L 337.333 252.482 L 333.575 252.482 L 333.575 253.851 L 337.333 253.851 Z M 335.454 256.484 L 335.454 255.162 L 333.575 255.162 L 333.575 256.484 L 335.454 256.484 Z" transform="matrix(1.577123, 0, 0, 1.477503, -162.298431, -121.884384)" style="fill: rgb(65, 74, 86); white-space: pre;"/>
  <path d="M 338.657 252.482 L 342.369 252.482 L 342.369 253.851 L 340.118 253.851 L 340.118 255.162 L 342.369 255.162 L 342.369 256.519 L 340.118 256.519 L 340.118 259.152 L 338.657 259.152 L 338.657 252.482 Z M 346.649 259.152 L 346.649 256.391 L 345.559 255.823 L 346.649 255.301 L 346.649 253.282 L 345.28 252.482 L 342.891 252.482 L 342.891 253.851 L 345.188 253.851 L 345.188 255.162 L 342.891 255.162 L 342.891 256.519 L 345.188 256.519 L 345.188 259.152 L 346.649 259.152 Z" transform="matrix(1.577123, 0, 0, 1.477503, -162.298431, -121.884384)" style="fill: rgb(65, 74, 86); white-space: pre;"/>
</svg>